<svg width="30" height="30" viewBox="0 0 30 30" fill="none" xmlns="http://www.w3.org/2000/svg">
<path d="M16.732 27C15.9622 28.3333 14.0377 28.3333 13.2679 27L3.74167 10.5C2.97187 9.16667 3.93412 7.5 5.47372 7.5H24.5263C26.0659 7.5 27.0281 9.16667 26.2583 10.5L16.732 27Z" fill="#D9D9D9"/>
<path d="M9.75284 18V17.3608L12.1534 14.733C12.4351 14.4252 12.6671 14.1577 12.8494 13.9304C13.0317 13.7008 13.1667 13.4853 13.2543 13.2841C13.3442 13.0805 13.3892 12.8674 13.3892 12.6449C13.3892 12.3892 13.3277 12.1679 13.2045 11.9808C13.0838 11.7938 12.9181 11.6494 12.7074 11.5476C12.4967 11.4458 12.2599 11.3949 11.9972 11.3949C11.7178 11.3949 11.474 11.4529 11.2656 11.5689C11.0597 11.6825 10.8999 11.8423 10.7862 12.0483C10.675 12.2543 10.6193 12.4957 10.6193 12.7727H9.78125C9.78125 12.3466 9.8795 11.9725 10.076 11.6506C10.2725 11.3286 10.54 11.0777 10.8786 10.8977C11.2195 10.7178 11.6018 10.6278 12.0256 10.6278C12.4517 10.6278 12.8293 10.7178 13.1584 10.8977C13.4875 11.0777 13.7455 11.3203 13.9325 11.6257C14.1196 11.9311 14.2131 12.2708 14.2131 12.6449C14.2131 12.9124 14.1645 13.174 14.0675 13.4297C13.9728 13.683 13.8071 13.9659 13.5703 14.2784C13.3359 14.5885 13.0104 14.9673 12.5938 15.4148L10.9602 17.1619V17.2188H14.3409V18H9.75284ZM18.1797 18.0994C17.6446 18.0994 17.1889 17.9538 16.8125 17.6626C16.4361 17.3691 16.1484 16.9441 15.9496 16.3878C15.7507 15.8291 15.6513 15.1544 15.6513 14.3636C15.6513 13.5777 15.7507 12.9065 15.9496 12.3501C16.1508 11.7914 16.4396 11.3653 16.8161 11.0717C17.1948 10.7758 17.6494 10.6278 18.1797 10.6278C18.71 10.6278 19.1634 10.7758 19.5398 11.0717C19.9186 11.3653 20.2074 11.7914 20.4062 12.3501C20.6075 12.9065 20.7081 13.5777 20.7081 14.3636C20.7081 15.1544 20.6087 15.8291 20.4098 16.3878C20.2109 16.9441 19.9233 17.3691 19.5469 17.6626C19.1705 17.9538 18.7147 18.0994 18.1797 18.0994ZM18.1797 17.3182C18.71 17.3182 19.1219 17.0625 19.4155 16.5511C19.709 16.0398 19.8558 15.3106 19.8558 14.3636C19.8558 13.7339 19.7884 13.1977 19.6534 12.755C19.5208 12.3123 19.3291 11.9749 19.0781 11.7429C18.8295 11.5109 18.5301 11.3949 18.1797 11.3949C17.6541 11.3949 17.2434 11.6541 16.9474 12.1726C16.6515 12.6887 16.5036 13.419 16.5036 14.3636C16.5036 14.9934 16.5698 15.5284 16.7024 15.9688C16.835 16.4091 17.0256 16.7441 17.2741 16.9737C17.5251 17.2034 17.8269 17.3182 18.1797 17.3182Z" fill="black"/>
</svg>
